<svg xmlns="http://www.w3.org/2000/svg" class="hidden-xs" fill="none" viewBox="0 0 69 80" height="24" width="20"><path fill="#75ABF7" d="M30.0502 36.5916C28.2063 36.5895 26.4388 35.8645 25.1372 34.5765C23.8355 33.2885 23.1066 31.543 23.1109 29.7247V27.0695C23.093 12.1572 35.3222 0.0461251 50.4445 2.85555e-05C55.896 -0.00782421 61.2234 1.60412 65.7322 4.62572C68.8486 6.76573 69.6483 10.9751 67.5288 14.0824C65.4094 17.1897 61.1542 18.0463 57.9692 16.0068C55.7504 14.5192 53.1277 13.7269 50.4445 13.7338C42.9979 13.7601 36.9784 19.7262 36.9896 27.0695V29.7366C36.9928 31.5547 36.2635 33.2995 34.9621 34.5873C33.6608 35.8751 31.8939 36.6003 30.0502 36.6035" clip-rule="evenodd" fill-rule="evenodd"></path><path fill="#5239BA" d="M53.1293 43.0368H36.9818V27.0698C37.0683 24.5708 35.7656 22.2242 33.5842 20.9495C31.4028 19.6747 28.69 19.6747 26.5086 20.9495C24.3272 22.2242 23.0246 24.5708 23.1111 27.0698V43.0487H6.9636C3.11771 43.0487 0 46.1231 0 49.9156C0 53.7081 3.11771 56.7825 6.9636 56.7825H23.1111V72.7614C23.0503 75.2449 24.3591 77.5657 26.5306 78.825C28.702 80.0843 31.3949 80.0843 33.5663 78.825C35.7378 77.5657 37.0466 75.2449 36.9858 72.7614V56.7706H53.1333C56.9792 56.7706 60.0969 53.6962 60.0969 49.9037C60.0969 46.1112 56.9792 43.0368 53.1333 43.0368" clip-rule="evenodd" fill-rule="evenodd"></path></svg>